<svg width="32" height="32" viewBox="0 0 32 32" fill="none" xmlns="http://www.w3.org/2000/svg">
<g id="Frame">
<path id="Vector" d="M15.9999 1.33203C7.90125 1.33203 1.33325 8.06536 1.33325 16.3694C1.33325 23.0134 5.53592 28.6494 11.3639 30.6387C12.0973 30.7774 12.3333 30.3107 12.3333 29.9147V27.1147C8.25325 28.0254 7.40392 25.3414 7.40392 25.3414C6.73725 23.6027 5.77458 23.1414 5.77458 23.1414C4.44392 22.208 5.87592 22.2267 5.87592 22.2267C7.34925 22.3334 8.12392 23.7774 8.12392 23.7774C9.43058 26.076 11.5546 25.412 12.3919 25.0267C12.5226 24.056 12.9026 23.392 13.3226 23.016C10.0666 22.6347 6.64258 21.3454 6.64258 15.584C6.64258 13.9414 7.21458 12.6014 8.15192 11.548C7.99992 11.168 7.49859 9.6387 8.29459 7.56803C8.29459 7.56803 9.52658 7.16403 12.3293 9.10936C13.4986 8.77603 14.7533 8.60936 15.9999 8.6027C17.2466 8.60936 18.5013 8.77603 19.6733 9.10936C22.4733 7.16403 23.7039 7.56803 23.7039 7.56803C24.5013 9.64003 23.9999 11.1694 23.8479 11.548C24.7892 12.6014 25.3573 13.9427 25.3573 15.584C25.3573 21.36 21.9266 22.632 18.6613 23.004C19.1866 23.4707 19.6666 24.3854 19.6666 25.788V29.9147C19.6666 30.3147 19.9013 30.784 20.6453 30.6374C26.4693 28.6454 30.6666 23.0107 30.6666 16.3694C30.6666 8.06403 24.0999 1.33203 15.9999 1.33203Z" fill="black"/>
</g>
</svg>
