<svg width="124" height="150" viewBox="0 0 124 150" fill="none" xmlns="http://www.w3.org/2000/svg">
<g id="Group 28">
<path id="Vector" d="M96.6967 0.0351562L105.229 16.1028L123.476 18.3202L110.086 30.387L112.764 48.2382L96.6967 38.1959L80.629 48.2382L83.307 30.387L69.9172 18.3202L88.6629 16.1028L96.6967 0.0351562Z" fill="#FFD700"/>
<path id="Vector_2" d="M95.1811 60.2834L84.8014 57.6162C82.9408 64.7836 78.9976 71.2388 73.47 76.1663C67.9423 81.0937 61.0783 84.2723 53.745 85.3005C46.4117 86.3286 38.9382 85.1602 32.2686 81.9429C25.5991 78.7255 20.0327 73.6036 16.2728 67.2241C12.5129 60.8447 10.7281 53.494 11.1439 46.1006C11.5598 38.7073 14.1576 31.6031 18.6091 25.6855C23.0607 19.7679 29.1663 15.3024 36.1545 12.8532C43.1428 10.404 50.7002 10.081 57.8719 11.925L60.5445 1.55066C50.0897 -1.16879 39.0241 -0.293481 29.1269 4.03585C19.2297 8.36518 11.0758 15.897 5.97638 25.4203C0.87691 34.9437 -0.871896 45.9052 1.01113 56.5425C2.89416 67.1798 8.29961 76.8749 16.3584 84.0689V150L48.4938 128.576L80.6291 150V84.1653C87.7425 77.8254 92.8081 69.5118 95.1811 60.2834ZM69.9173 129.985L48.4938 115.701L27.0702 129.985V91.3529C33.717 94.6921 41.0515 96.4337 48.49 96.4393C55.9284 96.4449 63.2655 94.7142 69.9173 91.3851V129.985Z" fill="#FFD700"/>
</g>
</svg>
