<svg width="140" height="140" viewBox="0 0 140 140" fill="none" xmlns="http://www.w3.org/2000/svg">
<g id="Logo Shapes 16">
<g id="Clip path group">
<mask id="mask0_45_1120" style="mask-type:luminance" maskUnits="userSpaceOnUse" x="0" y="0" width="140" height="140">
<g id="clip0">
<path id="Vector" d="M140 0H0V140H140V0Z" fill="white"/>
</g>
</mask>
<g mask="url(#mask0_45_1120)">
<g id="Group">
<path id="Vector_2" d="M140 69.999C140 88.5639 132.625 106.368 119.497 119.496C106.37 132.623 88.5654 139.998 70.0003 139.999C69.0429 139.999 68.1035 139.981 67.1461 139.945C62.0326 139.736 56.957 138.973 52.0081 137.669C52.9655 137.181 53.9048 136.693 54.8442 136.169C54.8622 136.169 54.8803 136.151 54.9164 136.133L54.9345 136.115C55.9281 135.573 56.9035 135.031 57.861 134.471C58.0958 134.327 58.3306 134.2 58.5655 134.074C59.4687 133.532 60.3719 132.99 61.2571 132.412C61.5188 132.27 61.7721 132.113 62.0158 131.942C62.7023 131.527 63.3887 131.075 64.0571 130.623C64.5268 130.316 65.0145 129.991 65.4661 129.684C66.1526 129.214 66.821 128.745 67.4893 128.257C67.941 127.95 68.3564 127.643 68.79 127.3C69.3681 126.902 69.9281 126.469 70.4881 126.035C70.9939 125.674 71.4816 125.294 71.9693 124.897C72.6558 124.373 73.3242 123.831 73.9926 123.253C74.2816 123.036 74.5706 122.802 74.8597 122.549C75.5822 121.953 76.2868 121.338 76.9913 120.706C77.3706 120.381 77.75 120.056 78.1293 119.694C78.5448 119.333 78.9422 118.972 79.3397 118.593C80.0984 117.906 80.839 117.183 81.5797 116.461C81.6788 116.38 81.7697 116.289 81.8506 116.19C82.5732 115.503 83.2777 114.781 83.9642 114.058C84.4519 113.589 84.9035 113.101 85.3371 112.613C85.861 112.089 86.3487 111.547 86.8364 111.005C87.1255 110.698 87.3964 110.391 87.6493 110.084C88.2997 109.362 88.9319 108.621 89.5642 107.88C89.8894 107.501 90.2145 107.103 90.5216 106.706C90.9913 106.164 91.4429 105.622 91.8584 105.062C92.2919 104.538 92.7074 103.996 93.1048 103.454C93.4842 102.985 93.8455 102.497 94.1887 102.027C94.6584 101.413 95.11 100.799 95.5435 100.167C95.9771 99.5345 96.4468 98.9022 96.8803 98.2519C97.0955 97.9683 97.2945 97.6727 97.4764 97.3667C98.0906 96.4635 98.6868 95.5422 99.2648 94.6209C100.005 93.4828 100.71 92.3267 101.378 91.1525C101.685 90.6467 101.975 90.1409 102.264 89.6351C104.606 85.5036 106.694 81.2322 108.514 76.8454C108.785 76.2312 109.038 75.617 109.273 74.9848C109.562 74.3164 109.815 73.6299 110.067 72.9435C110.284 72.3835 110.501 71.8054 110.7 71.2274C110.935 70.5951 111.151 69.9448 111.368 69.3125C112.163 67.0003 112.885 64.6699 113.518 62.3035C113.68 61.7074 113.843 61.1293 113.987 60.5332C114.096 60.1538 114.186 59.7925 114.276 59.4132L114.71 57.5706C115.288 55.0596 115.776 52.5306 116.191 49.9654L116.462 48.2312C116.498 47.9603 116.535 47.7074 116.571 47.4364C116.679 46.7499 116.769 46.0635 116.842 45.377C116.968 44.3474 117.095 43.3177 117.185 42.288C117.221 42.017 117.239 41.7461 117.257 41.4751C117.329 40.7706 117.384 40.048 117.438 39.3435C117.492 38.639 117.528 37.8983 117.564 37.1757C117.6 36.6699 117.618 36.1641 117.636 35.6403C117.709 33.9783 117.745 32.3164 117.745 30.6545C117.745 29.8054 117.745 28.9745 117.709 28.1435C117.709 27.7099 117.709 27.2945 117.691 26.8609C117.636 25.3616 117.564 23.8803 117.456 22.399V22.3448C117.438 21.9835 117.42 21.6222 117.384 21.2609C117.311 20.2674 117.221 19.2919 117.131 18.2983C117.131 18.2673 117.125 18.2364 117.113 18.208C119.546 20.4247 121.822 22.809 123.923 25.3435L123.977 25.3977C123.987 25.4074 123.993 25.4201 123.995 25.4338C134.365 37.9672 140.027 53.7317 140 69.999Z" fill="url(#paint0_linear_45_1120)"/>
<path id="Vector_3" d="M117.744 30.6555C117.754 52.2635 111.922 73.4724 100.865 92.0371C89.8079 110.602 73.9377 125.832 54.9338 136.116C54.9103 136.144 54.8785 136.163 54.8433 136.17L54.8254 136.188C53.8861 136.694 52.9467 137.182 52.0074 137.67C46.112 136.116 40.4501 133.783 35.1712 130.733C31.3524 128.533 27.7478 125.981 24.4048 123.11C25.037 122.441 25.6512 121.773 26.2654 121.086L26.2833 121.068C26.2833 121.05 26.3016 121.032 26.3196 121.014H26.3375C46.105 99.0445 57.0214 70.5241 56.9751 40.9703C56.978 28.2395 54.966 15.5884 51.0136 3.48651H50.9958C50.9958 3.45038 50.9777 3.41425 50.9777 3.37812H50.9594C50.9491 3.34905 50.943 3.3186 50.9416 3.28776C50.5803 2.18582 50.2009 1.08394 49.8035 6.70109e-05H69.9996C87.4261 -0.0240665 104.231 6.4712 117.112 18.209C117.256 19.5819 117.365 20.9548 117.455 22.3458C117.654 25.0916 117.744 27.8555 117.744 30.6555Z" fill="url(#paint1_linear_45_1120)"/>
<path id="Vector_4" d="M56.9755 40.9703C56.9755 42.1806 56.9574 43.391 56.9213 44.5832C56.9032 45.36 56.8671 46.1187 56.831 46.8955C56.6865 50.0026 56.4155 53.0916 56.0181 56.1626C55.9277 56.9574 55.8194 57.7342 55.6929 58.511C55.5665 59.4684 55.4039 60.4077 55.2413 61.3652C55.0968 62.2684 54.9342 63.1535 54.7535 64.0568C54.7174 64.2735 54.6632 64.4903 54.6271 64.7071C54.4826 65.4477 54.32 66.2065 54.1574 66.9471C53.3089 70.797 52.2659 74.6014 51.0323 78.3458C50.7974 79.0864 50.5445 79.809 50.2916 80.5135C50.2696 80.6004 50.2394 80.6852 50.2013 80.7664C49.9484 81.5071 49.6955 82.2116 49.4245 82.9342C49.3523 83.151 49.2619 83.3858 49.1716 83.6206C48.8826 84.3974 48.5755 85.1561 48.2684 85.9148C47.9252 86.7819 47.5639 87.649 47.1845 88.4981C46.8052 89.3832 46.4077 90.2684 46.0103 91.1535C45.631 91.9664 45.2336 92.7794 44.8542 93.5742C44.4387 94.4232 44.0232 95.2542 43.5897 96.0671C43.1561 96.88 42.7226 97.711 42.271 98.5239C41.8194 99.3368 41.3677 100.15 40.9161 100.945C40.4645 101.739 39.9768 102.552 39.489 103.347C39.0013 104.142 38.5135 104.919 38.0077 105.695C37.0142 107.249 35.9845 108.785 34.9187 110.284C33.8529 111.783 32.7329 113.265 31.6129 114.728C29.9148 116.877 28.1566 118.973 26.3381 121.014H26.32C26.3019 121.032 26.3019 121.032 26.3019 121.05C26.3019 121.055 26.3001 121.06 26.2967 121.063C26.2933 121.066 26.2887 121.068 26.2839 121.068C25.6697 121.755 25.0374 122.441 24.4052 123.11C21.5589 120.664 18.913 117.994 16.493 115.125C16.4746 115.091 16.4501 115.06 16.4207 115.035C5.79714 102.435 -0.0203739 86.4804 5.36138e-05 70V0H49.8039C50.2013 1.08387 50.5806 2.16774 50.9239 3.26968L50.9419 3.28771C50.9436 3.31852 50.9497 3.349 50.96 3.37806H50.9781V3.43224C50.977 3.44205 50.9779 3.45198 50.981 3.46136C50.9842 3.47072 50.9894 3.4793 50.9961 3.48643H51.0142C51.0303 3.55533 51.0545 3.62203 51.0865 3.68512L51.3032 4.38966C51.9174 6.3045 52.4774 8.2374 52.9832 10.2064C53.3445 11.5251 53.6697 12.8799 53.9768 14.2348C54.5368 16.6916 55.0245 19.2026 55.44 21.7497C55.5303 22.3639 55.6387 22.96 55.711 23.5742C55.9277 25.0735 56.1265 26.5729 56.289 28.0903C56.3613 28.6503 56.4155 29.2284 56.4516 29.7884C56.56 30.8361 56.6323 31.9019 56.7045 32.9497C56.8852 35.6052 56.9755 38.2787 56.9755 40.9703Z" fill="url(#paint2_linear_45_1120)"/>
<g id="Group_2" style="mix-blend-mode:multiply" opacity="0.15">
<path id="Vector_5" d="M35.1712 130.733C31.3524 128.533 27.7478 125.981 24.4048 123.11C39.5983 106.939 50.0147 86.8746 54.4979 65.1434C58.9814 43.4121 57.3564 20.8638 49.8035 0C49.8035 0 81.2719 49.1174 35.1712 130.733Z" fill="black"/>
</g>
<g id="Group_3" style="mix-blend-mode:multiply" opacity="0.15">
<path id="Vector_6" d="M67.1456 139.947C62.0321 139.738 56.9565 138.975 52.0076 137.671C71.7844 127.651 88.3971 112.345 100.001 93.4546C111.606 74.5638 117.747 52.8266 117.744 30.6564C117.744 26.4996 117.533 22.3455 117.112 18.21C117.112 18.21 135.874 86.2409 67.1456 139.947Z" fill="black"/>
</g>
<g id="Group_4" style="mix-blend-mode:multiply" opacity="0.25">
<path id="Vector_7" d="M118.323 39.1196C118.215 40.6009 118.107 42.1547 117.998 43.7805C117.854 45.3882 117.854 47.1222 117.547 48.8384C117.294 50.5725 117.023 52.3792 116.752 54.2218C116.535 56.0824 116.011 57.9248 115.614 59.8396C115.235 61.8103 114.746 63.7584 114.151 65.6747C113.554 67.6256 112.958 69.5947 112.344 71.6179C111.622 73.5869 110.845 75.5558 110.05 77.5609C109.327 79.5842 108.316 81.4992 107.412 83.4682L106.022 86.4127C105.534 87.3882 104.974 88.3276 104.45 89.285C103.348 91.1456 102.372 93.1145 101.144 94.9029C99.9518 96.7093 98.7596 98.516 97.5673 100.304C95.1154 103.704 92.4863 106.972 89.6912 110.095C87.0872 113.02 84.3379 115.811 81.4538 118.459C80.0267 119.669 78.6357 120.844 77.2989 121.982C76.6305 122.542 75.9621 123.084 75.3118 123.625C74.6434 124.131 73.957 124.619 73.3067 125.089C71.988 126.046 70.7415 126.949 69.5312 127.817C68.3209 128.684 67.0925 129.352 65.9905 130.075C63.7325 131.429 61.8176 132.676 60.1015 133.507C56.9763 135.133 55.0796 136.054 54.8447 136.162C54.88 136.155 54.9116 136.136 54.9351 136.108C73.9389 125.824 89.8091 110.594 100.866 92.0292C111.923 73.4643 117.755 52.2554 117.745 30.6474C117.745 27.8474 117.655 25.0837 117.456 22.3379C117.511 22.7895 117.727 24.8489 118.016 28.1366C118.071 29.094 118.215 30.0693 118.215 31.2796C118.233 32.3996 118.251 33.628 118.269 34.9467C118.287 36.2655 118.305 37.6456 118.323 39.1196Z" fill="black"/>
</g>
<g id="Group_5" style="mix-blend-mode:multiply" opacity="0.25">
<path id="Vector_8" d="M26.3196 121.016H26.3376C26.3196 121.052 26.3015 121.052 26.2834 121.07C26.2834 121.052 26.3015 121.034 26.3196 121.016Z" fill="black"/>
</g>
<g id="Group_6" style="mix-blend-mode:multiply" opacity="0.25">
<path id="Vector_9" d="M50.9712 3.37942C50.9804 3.41644 50.9925 3.45267 51.0073 3.48779H50.9892C50.9712 3.45166 50.9712 3.41555 50.9531 3.37942C50.9426 3.35036 50.9367 3.31988 50.9351 3.28906C50.949 3.31838 50.9611 3.34857 50.9712 3.37942Z" fill="black"/>
</g>
<g id="Group_7" style="mix-blend-mode:multiply" opacity="0.25">
<path id="Vector_10" d="M58.5291 42.553C58.5607 46.4078 58.3797 50.2613 57.9872 54.0962C57.5944 58.0505 56.9976 61.9817 56.1988 65.8743C55.7833 67.8433 55.3497 69.7943 54.8078 71.7091L54.031 74.5814C53.7239 75.5207 53.4349 76.4601 53.1278 77.3994C52.8207 78.3388 52.5317 79.2782 52.2246 80.1994C51.8814 81.1027 51.5381 82.024 51.1949 82.9091C50.5265 84.7336 49.7678 86.4678 49.0091 88.184C48.2865 89.9182 47.4736 91.562 46.6607 93.1698C45.8478 94.7775 44.9988 96.3311 44.1497 97.8123C43.3368 99.3117 42.4878 100.739 41.6026 102.094C40.7356 103.448 39.9046 104.767 39.0375 105.978C38.1704 107.188 37.3756 108.38 36.5446 109.446C35.7136 110.512 34.9007 111.523 34.142 112.463C32.6065 114.341 31.1794 115.895 30.0594 117.214C27.9639 119.399 26.6272 120.718 26.3381 121.007C46.1054 99.0375 57.0218 70.5169 56.9755 40.9633C56.9786 28.2325 54.9666 15.5813 51.0143 3.47949C51.1046 3.69627 51.2491 4.07562 51.4659 4.61756C51.8091 5.46659 52.3149 6.73109 52.8568 8.37496C54.4082 12.9151 55.6455 17.5566 56.5601 22.2665C57.1887 25.4204 57.6589 28.6038 57.9691 31.8046C58.3624 35.3736 58.5493 38.9625 58.5291 42.553Z" fill="black"/>
</g>
<g id="Group_8" style="mix-blend-mode:screen" opacity="0.4">
<path id="Vector_11" d="M117.745 30.6544C117.754 52.2625 111.922 73.4713 100.865 92.036C89.8087 110.601 73.9384 125.831 54.9346 136.115C55.3501 135.826 57.0481 134.67 59.7397 132.9C61.3475 131.942 63.1359 130.515 65.2133 128.962C67.3449 127.462 69.5666 125.529 72.0054 123.488C72.6196 122.964 73.2518 122.44 73.8841 121.916C74.4802 121.338 75.0946 120.76 75.7088 120.164C76.9733 118.99 78.2559 117.761 79.5926 116.515C82.0492 113.823 84.795 111.132 87.2701 108.007C89.9254 105.044 92.2195 101.648 94.7125 98.306C95.8505 96.5538 96.9888 94.8015 98.1268 93.0312C99.301 91.2789 100.222 89.3641 101.288 87.5396C101.812 86.6183 102.372 85.715 102.841 84.7757L104.215 81.9215C105.118 80.0247 106.129 78.1822 106.852 76.2131C107.629 74.2983 108.406 72.3834 109.182 70.4867C109.833 68.5538 110.483 66.6389 111.115 64.7602C111.82 62.8996 112.199 60.9667 112.741 59.1421C113.229 57.2815 113.825 55.5112 114.114 53.7047C114.818 50.128 115.595 46.7499 115.938 43.5886C116.173 42.017 116.39 40.4996 116.589 39.0544C116.715 37.5912 116.824 36.2002 116.932 34.8996C117.04 33.5989 117.131 32.3705 117.221 31.2505C117.329 30.1847 117.275 29.1009 117.311 28.1615C117.366 24.8557 117.438 22.7963 117.456 22.3447C117.654 25.0905 117.745 27.8544 117.745 30.6544Z" fill="white"/>
</g>
<g id="Group_9" style="mix-blend-mode:screen" opacity="0.4">
<path id="Vector_12" d="M56.9751 40.9717C57.0215 70.5252 46.1049 99.0457 26.3376 121.016C26.3196 121.052 26.3015 121.052 26.2834 121.07C26.2834 121.052 26.3015 121.034 26.3196 121.016C26.5725 120.672 27.6925 119.155 29.5351 116.752C30.5105 115.343 31.757 113.681 33.0576 111.676C34.3583 109.671 35.8215 107.395 37.2847 104.866C38.0615 103.619 38.7841 102.283 39.5247 100.892C40.2654 99.5007 41.0602 98.0736 41.7828 96.5562C42.5415 95.0569 43.3002 93.5214 43.9867 91.8956C44.6731 90.2698 45.4499 88.662 46.0822 86.964C46.7686 85.2659 47.4551 83.5498 48.0331 81.7614C48.6654 80.0091 49.2615 78.2027 49.8034 76.3782C50.0925 75.4569 50.3634 74.5356 50.6525 73.6143L51.3751 70.8143C51.8809 68.9536 52.2783 67.0569 52.6576 65.1601C53.4711 61.3824 54.0921 57.5659 54.5183 53.7252C54.9338 49.9317 55.2589 46.1743 55.3493 42.5252C55.7046 31.1226 54.6366 19.7202 52.1699 8.582C51.5738 5.85426 51.1402 4.06585 50.9957 3.48779C50.9776 3.45166 50.9776 3.41555 50.9596 3.37942C50.9493 3.35036 50.9431 3.31988 50.9415 3.28906C50.9554 3.31838 50.9675 3.34857 50.9776 3.37942C50.9869 3.41644 50.999 3.45267 51.0138 3.48779C54.9661 15.5896 56.9781 28.2407 56.9751 40.9717Z" fill="white"/>
</g>
<g id="Group_10" style="mix-blend-mode:multiply" opacity="0.25">
<path id="Vector_13" d="M140 70.0027C139.999 88.5676 132.624 106.372 119.497 119.5C106.369 132.627 88.5651 140.002 70 140.003C70 140.003 70.6142 139.948 71.7703 139.84C72.9445 139.768 74.6245 139.515 76.7561 139.226C78.8877 138.883 81.4529 138.377 84.3432 137.654C87.5517 136.779 90.7061 135.717 93.791 134.475C97.4068 132.97 100.898 131.182 104.232 129.128C107.913 126.824 111.388 124.207 114.619 121.306C118.053 118.198 121.181 114.769 123.959 111.063C126.842 107.263 129.307 103.162 131.311 98.8336C133.359 94.5189 134.951 90.0024 136.062 85.3575C137.136 80.8585 137.777 76.2674 137.977 71.6465C138.152 67.3013 137.946 62.9494 137.363 58.6401C136.823 54.766 135.971 50.9419 134.815 47.2052C133.826 44.0241 132.631 40.9105 131.239 37.884C129.956 35.1923 128.728 32.8801 127.626 31.0375C126.524 29.1949 125.603 27.7498 124.934 26.8104C124.428 26.0878 124.121 25.6362 123.995 25.4375C134.365 37.9708 140.027 53.7354 140 70.0027Z" fill="black"/>
</g>
<g id="Group_11" style="mix-blend-mode:screen" opacity="0.4">
<path id="Vector_14" d="M11.2904 1.5716L1.89681 1.80645L2.11357 14.8851C2.20389 19.8348 2.18588 24.8026 2.22201 29.7703C2.25814 34.7381 2.25814 39.6877 2.22201 44.6374C2.18588 49.5871 2.20389 54.5548 2.11357 59.5226L1.98717 66.9652L1.951 70.6323C1.96907 71.8787 1.93294 73.1432 2.0052 74.3174C2.08213 76.7238 2.29322 79.1242 2.63746 81.5071C2.98068 83.9097 3.46846 86.2942 4.02846 88.6606C4.60051 91.0211 5.29997 93.3487 6.12389 95.6335C6.93679 97.9458 7.89425 100.204 8.92393 102.426C10.0078 104.612 11.1097 106.815 12.4104 108.929C13.6387 111.006 15.0117 113.048 16.4207 115.035C5.79714 102.435 -0.0203739 86.4804 5.36138e-05 70V0H45.1613C37.6284 0.541936 30.1135 0.867086 22.5806 1.17418L11.2904 1.5716Z" fill="white"/>
</g>
</g>
</g>
</g>
</g>
<defs>
<linearGradient id="paint0_linear_45_1120" x1="128.386" y1="39.7649" x2="64.1456" y2="114.083" gradientUnits="userSpaceOnUse">
<stop stop-color="#F58033"/>
<stop offset="1" stop-color="#A53826"/>
</linearGradient>
<linearGradient id="paint1_linear_45_1120" x1="71.0745" y1="7.57183" x2="71.0745" y2="126.518" gradientUnits="userSpaceOnUse">
<stop stop-color="#FCC400"/>
<stop offset="1" stop-color="#F80300"/>
</linearGradient>
<linearGradient id="paint2_linear_45_1120" x1="28.4877" y1="-0.246219" x2="28.4877" y2="128.034" gradientUnits="userSpaceOnUse">
<stop stop-color="#FCFC53"/>
<stop offset="1" stop-color="#F8A700"/>
</linearGradient>
</defs>
</svg>
