<svg width="40" height="40" viewBox="0 0 40 40" fill="none" xmlns="http://www.w3.org/2000/svg">
<g id="Frame">
<path id="Vector" d="M6.66683 34.9998H22.7002C23.662 35.0003 24.6125 34.7924 25.4862 34.3905C26.36 33.9886 27.1364 33.4021 27.7618 32.6714L36.2652 22.7514C36.4432 22.5441 36.5676 22.2961 36.6272 22.0294C36.6868 21.7626 36.68 21.4853 36.6072 21.2219C36.5344 20.9584 36.398 20.7169 36.2099 20.5186C36.0217 20.3203 35.7878 20.1713 35.5285 20.0848L32.2485 18.9914C31.4557 18.7338 30.6117 18.6755 29.7911 18.8217C28.9704 18.9679 28.1985 19.3141 27.5435 19.8298L22.2352 24.0748L21.2068 22.0164C20.6559 20.9069 19.8053 19.9738 18.7514 19.3228C17.6974 18.6718 16.4823 18.329 15.2435 18.3331H6.66683C4.8285 18.3331 3.3335 19.8281 3.3335 21.6664V31.6664C3.3335 33.5048 4.8285 34.9998 6.66683 34.9998ZM6.66683 21.6664H15.2435C16.5152 21.6664 17.6568 22.3714 18.2252 23.5081L18.9702 24.9998H11.6668V28.3331H21.6902C21.9466 28.3297 22.1987 28.267 22.4268 28.1498L22.4318 28.1481L22.4385 28.1448H22.4435L22.4468 28.1431H22.4535L22.4552 28.1414C22.4735 28.1464 22.4602 28.1398 22.4602 28.1398C22.4802 28.1398 22.4635 28.1381 22.4635 28.1381H22.4652L22.4685 28.1364L22.4735 28.1348L22.4768 28.1331L22.4802 28.1314L22.4852 28.1298L22.4885 28.1281L22.4918 28.1264L22.4968 28.1231L22.5002 28.1214L22.5035 28.1198L22.5085 28.1181L22.5118 28.1164H22.5135L22.5168 28.1148L22.5218 28.1131L22.5252 28.1114C22.5435 28.1098 22.5302 28.1098 22.5302 28.1098L22.5335 28.1081C22.5977 28.0693 22.659 28.0259 22.7168 27.9781L29.6268 22.4498C30.0618 22.1031 30.6652 21.9948 31.1935 22.1714L32.1218 22.4814L25.2335 30.5198C24.9166 30.8796 24.5269 31.1679 24.0901 31.3656C23.6534 31.5632 23.1796 31.6658 22.7002 31.6664H6.66683V21.6664ZM22.9352 3.87645C22.1668 4.71978 18.3335 9.09478 18.3335 12.4998C18.3335 15.7164 20.9502 18.3331 24.1668 18.3331C27.3835 18.3331 30.0002 15.7164 30.0002 12.4998C30.0002 9.09478 26.1668 4.71978 25.3985 3.87645C24.7668 3.18311 23.5668 3.18311 22.9352 3.87645ZM26.6668 12.4998C26.6668 13.8781 25.5452 14.9998 24.1668 14.9998C22.7885 14.9998 21.6668 13.8781 21.6668 12.4998C21.6668 11.3198 22.8968 9.27644 24.1668 7.60978C25.4368 9.27644 26.6668 11.3198 26.6668 12.4998Z" fill="#1D1C1C"/>
</g>
</svg>
