<svg width="54" height="51" viewBox="0 0 54 51" fill="none" xmlns="http://www.w3.org/2000/svg">
<path id="Vector" d="M5.66683 50.9999H31.3202C32.859 51.0008 34.3798 50.6682 35.7779 50.0251C37.1759 49.382 38.4181 48.4436 39.4188 47.2746L53.0242 31.4026C53.3091 31.0708 53.508 30.6741 53.6034 30.2473C53.6989 29.8205 53.6879 29.3768 53.5714 28.9553C53.455 28.5338 53.2366 28.1473 52.9357 27.8301C52.6347 27.5128 52.2603 27.2744 51.8455 27.1359L46.5975 25.3866C45.3291 24.9743 43.9786 24.881 42.6656 25.115C41.3526 25.3489 40.1174 25.9029 39.0695 26.7279L30.5762 33.5199L28.9308 30.2266C28.0494 28.4513 26.6884 26.9584 25.0021 25.9168C23.3158 24.8752 21.3715 24.3267 19.3895 24.3333H5.66683C2.7255 24.3333 0.333496 26.7253 0.333496 29.6666V45.6666C0.333496 48.6079 2.7255 50.9999 5.66683 50.9999ZM5.66683 29.6666H19.3895C21.4242 29.6666 23.2508 30.7946 24.1602 32.6133L25.3522 34.9999H13.6668V40.3333H29.7042C30.1144 40.3278 30.5179 40.2274 30.8828 40.0399L30.8908 40.0373L30.9015 40.0319H30.9095L30.9148 40.0293H30.9255L30.9282 40.0266C30.9575 40.0346 30.9362 40.0239 30.9362 40.0239C30.9682 40.0239 30.9415 40.0213 30.9415 40.0213H30.9442L30.9495 40.0186L30.9575 40.0159L30.9628 40.0133L30.9682 40.0106L30.9762 40.0079L30.9815 40.0053L30.9868 40.0026L30.9948 39.9973L31.0002 39.9946L31.0055 39.9919L31.0135 39.9893L31.0188 39.9866H31.0215L31.0268 39.9839L31.0348 39.9813L31.0402 39.9786C31.0695 39.9759 31.0482 39.9759 31.0482 39.9759L31.0535 39.9733C31.1563 39.9112 31.2543 39.8417 31.3468 39.7653L42.4028 30.9199C43.0988 30.3653 44.0642 30.1919 44.9095 30.4746L46.3948 30.9706L35.3735 43.8319C34.8665 44.4076 34.243 44.8689 33.5441 45.1852C32.8453 45.5015 32.0872 45.6656 31.3202 45.6666H5.66683V29.6666ZM31.6962 1.20261C30.4668 2.55194 24.3335 9.55194 24.3335 14.9999C24.3335 20.1466 28.5202 24.3333 33.6668 24.3333C38.8135 24.3333 43.0002 20.1466 43.0002 14.9999C43.0002 9.55194 36.8668 2.55194 35.6375 1.20261C34.6268 0.0932722 32.7068 0.0932722 31.6962 1.20261ZM37.6668 14.9999C37.6668 17.2053 35.8722 18.9999 33.6668 18.9999C31.4615 18.9999 29.6668 17.2053 29.6668 14.9999C29.6668 13.1119 31.6348 9.8426 33.6668 7.17594C35.6988 9.8426 37.6668 13.1119 37.6668 14.9999Z" fill="#D4EAF7"/>
</svg>
