<svg width="80" height="81" viewBox="0 0 80 81" fill="none" xmlns="http://www.w3.org/2000/svg">
<g id="Logo">
<g id="Clip path group">
<mask id="mask0_4_995" style="mask-type:luminance" maskUnits="userSpaceOnUse" x="0" y="0" width="80" height="81">
<g id="clip0">
<path id="Vector" d="M80 0H0V80.8368H80V0Z" fill="white"/>
</g>
</mask>
<g mask="url(#mask0_4_995)">
<g id="Group">
<path id="Vector_2" d="M68.2425 68.9357C75.786 61.3632 80.0149 51.1063 80.0003 40.418C79.9922 39.7583 79.7248 39.1282 79.2553 38.6646C78.7859 38.2007 78.1529 37.9409 77.4932 37.9409C76.8332 37.9409 76.2002 38.2007 75.7307 38.6646C75.2613 39.1282 74.9938 39.7583 74.9858 40.418C74.9964 49.7847 71.2885 58.7731 64.6769 65.4081C61.4673 68.7033 57.6302 71.3223 53.3918 73.1108C49.1537 74.8989 44.6002 75.8202 40.0003 75.8202C35.4003 75.8202 30.8468 74.8989 26.6086 73.1108C22.3704 71.3223 18.5333 68.7033 15.3237 65.4081C8.72094 58.7665 5.01486 49.7818 5.01486 40.4165C5.01486 31.051 8.72094 22.0663 15.3237 15.4245C18.5146 12.1547 22.3229 9.55079 26.5278 7.76383C30.7327 5.9769 35.2504 5.04243 39.8192 5.01462C40.7946 5.04517 41.7196 5.45566 42.3969 6.15849C43.0741 6.86129 43.4499 7.80089 43.444 8.77686C43.4385 9.75283 43.0518 10.688 42.3665 11.3829C41.6812 12.0778 40.7515 12.4775 39.7756 12.4967C39.6853 12.4968 39.5949 12.5019 39.5052 12.5117C32.5544 12.7355 25.9591 15.6378 21.0985 20.6117C15.9653 25.7791 13.0844 32.767 13.0844 40.0506C13.0844 47.3344 15.9653 54.3221 21.0985 59.4895C23.6062 62.0584 26.6024 64.0997 29.9107 65.4934C33.219 66.887 36.7728 67.6049 40.3625 67.6049C43.9522 67.6049 47.5061 66.887 50.8145 65.4934C54.1225 64.0997 57.1187 62.0584 59.6265 59.4895C64.7676 54.3276 67.6497 47.3362 67.6395 40.0506C67.6501 38.9032 67.4331 37.7645 67.0014 36.7013C66.5693 35.6382 65.9312 34.671 65.1233 33.8558C64.3154 33.0406 63.3542 32.3935 62.295 31.9519C61.2357 31.5102 60.0996 31.2829 58.9518 31.2829C57.804 31.2829 56.668 31.5102 55.6087 31.9519C54.5495 32.3935 53.5883 33.0406 52.7804 33.8558C51.9725 34.671 51.3344 35.6382 50.9023 36.7013C50.4705 37.7645 50.2536 38.9032 50.2642 40.0506C50.2642 40.1238 50.2689 40.1926 50.2748 40.2628C50.2689 40.3331 50.2642 40.4033 50.2642 40.475C50.2807 42.4757 49.7022 44.4361 48.6023 46.1079C47.5028 47.7793 45.9313 49.0862 44.0876 49.8634C42.2439 50.6402 40.2107 50.852 38.2466 50.4718C36.2822 50.0913 34.4751 49.1363 33.0546 47.7273C31.634 46.3183 30.664 44.5192 30.2676 42.558C29.8713 40.5969 30.0664 38.5622 30.8282 36.7122C31.5901 34.862 32.8843 33.28 34.5468 32.1666C36.2092 31.0533 38.165 30.4589 40.1657 30.4589C40.4975 30.4629 40.8268 30.401 41.1345 30.2768C41.4423 30.1526 41.7222 29.9685 41.9582 29.7353C42.1942 29.5021 42.3819 29.2243 42.5095 28.9181C42.6376 28.612 42.7035 28.2834 42.7035 27.9516C42.7035 27.6198 42.6376 27.2912 42.5095 26.9851C42.3819 26.6789 42.1942 26.4011 41.9582 26.1679C41.7222 25.9347 41.4423 25.7506 41.1345 25.6264C40.8268 25.5022 40.4975 25.4403 40.1657 25.4444C37.1965 25.4608 34.2985 26.3564 31.8377 28.018C29.3768 29.6797 27.4632 32.0329 26.3384 34.7809C25.2135 37.5289 24.9277 40.5486 25.5171 43.4589C26.1065 46.3691 27.5446 49.0394 29.6501 51.1334C31.7555 53.227 34.434 54.6503 37.3476 55.2236C40.2608 55.7966 43.279 55.494 46.0206 54.3539C48.7622 53.2138 51.105 51.2874 52.753 48.8173C54.4009 46.3472 55.2801 43.4442 55.2801 40.475C55.2801 40.4019 55.2754 40.3331 55.2695 40.2628C55.2754 40.1926 55.2801 40.1223 55.2801 40.0506C55.2703 39.5622 55.3581 39.0766 55.5385 38.6222C55.7185 38.1681 55.9878 37.7543 56.3295 37.4056C56.6716 37.0566 57.0799 36.7792 57.5304 36.59C57.9808 36.4009 58.4648 36.3034 58.9533 36.3034C59.4418 36.3034 59.9258 36.4009 60.3762 36.59C60.8266 36.7792 61.235 37.0566 61.5771 37.4056C61.9188 37.7543 62.1881 38.1681 62.3681 38.6222C62.5485 39.0766 62.6363 39.5622 62.6265 40.0506C62.633 46.0153 60.272 51.7385 56.0617 55.9635C54.0204 58.0607 51.5796 59.7274 48.8833 60.8656C46.1871 62.0039 43.29 62.5901 40.3633 62.5901C37.4369 62.5901 34.5399 62.0039 31.8436 60.8656C29.1474 59.7274 26.7065 58.0607 24.6652 55.9635C20.4606 51.7349 18.1005 46.0139 18.1005 40.0506C18.1005 34.0874 20.4606 28.3664 24.6652 24.1378C26.7082 22.0432 29.1491 20.378 31.8446 19.2401C34.5401 18.1021 37.4358 17.5143 40.3618 17.5112C40.5868 17.5105 40.8107 17.4796 41.0277 17.419C43.1623 17.0916 45.1004 15.9877 46.471 14.319C47.8416 12.6503 48.5478 10.5343 48.4541 8.37702C48.3605 6.21967 47.4732 4.17289 45.9632 2.62932C44.4531 1.08572 42.4265 0.154016 40.2718 0.0129264C40.1818 0.0031224 40.091 -0.00188526 40.0003 -0.0020752C39.9498 -0.0020752 39.8997 -0.0020752 39.8492 -0.0020752C39.8243 -0.0020752 39.8001 -0.0020752 39.776 -0.0020752C39.7519 -0.0020752 39.727 0.000849898 39.7028 0.00158168C34.4904 0.0425742 29.3376 1.11494 24.5416 3.15686C19.7455 5.19877 15.4011 8.16986 11.7588 11.8988C4.22776 19.4792 0.000976562 29.7308 0.000976562 40.4165C0.000976562 51.1019 4.22776 61.3534 11.7588 68.9338C15.4348 72.7006 19.8272 75.6944 24.6774 77.7378C29.5276 79.7817 34.7378 80.8347 40.001 80.8347C45.2643 80.8347 50.4742 79.7817 55.3248 77.7378C60.175 75.6944 64.5671 72.7006 68.2432 68.9338L68.2425 68.9357Z" fill="url(#paint0_linear_4_995)"/>
</g>
</g>
</g>
</g>
<defs>
<linearGradient id="paint0_linear_4_995" x1="11.6009" y1="68.79" x2="62.4384" y2="19.0389" gradientUnits="userSpaceOnUse">
<stop stop-color="#41287B"/>
<stop offset="0.123" stop-color="#462779"/>
<stop offset="0.284" stop-color="#572775"/>
<stop offset="0.465" stop-color="#72266E"/>
<stop offset="0.663" stop-color="#982565"/>
<stop offset="0.87" stop-color="#C82459"/>
<stop offset="0.99" stop-color="#E72452"/>
</linearGradient>
</defs>
</svg>
