<svg width="16" height="16" viewBox="0 0 16 16" fill="none" xmlns="http://www.w3.org/2000/svg">
<g id="Frame" clip-path="url(#clip0_170_238)">
<path id="Vector" d="M10.3201 11.4562C9.03427 12.455 7.41607 12.9262 5.795 12.7739C4.17394 12.6215 2.67189 11.857 1.59469 10.6361C0.517503 9.4151 -0.0538322 7.82948 -0.00297815 6.20206C0.0478759 4.57465 0.717095 3.02779 1.86842 1.87647C3.01974 0.725152 4.56659 0.0559325 6.19401 0.00507849C7.82143 -0.0457756 9.40704 0.525559 10.628 1.60275C11.849 2.67994 12.6135 4.18199 12.7658 5.80306C12.9182 7.42413 12.447 9.04233 11.4481 10.3282L15.7281 14.5922L14.5921 15.7282L10.3281 11.4562H10.3201ZM6.4001 11.2002C7.03045 11.2002 7.65462 11.076 8.23698 10.8348C8.81934 10.5936 9.34849 10.24 9.79421 9.79427C10.2399 9.34855 10.5935 8.8194 10.8347 8.23704C11.0759 7.65468 11.2001 7.0305 11.2001 6.40016C11.2001 5.76981 11.0759 5.14564 10.8347 4.56328C10.5935 3.98091 10.2399 3.45177 9.79421 3.00604C9.34849 2.56032 8.81934 2.20676 8.23698 1.96554C7.65462 1.72431 7.03045 1.60016 6.4001 1.60016C5.12706 1.60016 3.90616 2.10587 3.00599 3.00604C2.10581 3.90622 1.6001 5.12712 1.6001 6.40016C1.6001 7.6732 2.10581 8.8941 3.00599 9.79427C3.90616 10.6944 5.12706 11.2002 6.4001 11.2002Z" fill="#313D44"/>
</g>
<defs>
<clipPath id="clip0_170_238">
<rect width="16" height="16" fill="white"/>
</clipPath>
</defs>
</svg>
