<svg width="114" height="150" viewBox="0 0 114 150" fill="none" xmlns="http://www.w3.org/2000/svg">
<path id="Vector" d="M79.4966 114.993L80.6525 138.435L56.941 121.957L33.0967 138.451L34.2535 114.993H24.2393L22.5134 150H33.9818L56.9279 134.128L79.7676 150H91.2367L89.5107 114.993H79.4966ZM106.7 43.39L106.014 28.3702L93.3509 20.2664L85.2455 7.60179L70.2254 6.91415L56.875 0L43.5246 6.91572L28.5045 7.60335L20.3992 20.2664L7.73582 28.3702L7.05006 43.39L0.134033 56.7407L7.05006 70.0917L7.7377 85.1112L20.3992 93.2149L28.5033 105.88L43.5234 106.566L56.875 113.482L70.2254 106.566L85.2455 105.88L93.3496 93.2149L106.014 85.1124L106.7 70.093L113.616 56.7419L106.7 43.39ZM96.8087 67.4412L96.2577 79.4792L86.1073 85.9742L79.6122 96.1246L67.574 96.6747L56.875 102.217L46.1748 96.6747L34.1366 96.1246L27.6415 85.9742L17.4924 79.4792L16.9426 67.4412L11.3975 56.7407L16.9414 46.0424L17.4924 34.0025L27.6415 27.5075L34.1366 17.3574L46.1748 16.8073L56.875 11.2644L67.5752 16.807L79.6135 17.3571L86.1085 27.5072L96.2577 34.0025L96.8075 46.0408L102.353 56.7407L96.8087 67.4412Z" fill="#808080"/>
</svg>
