<svg width="32" height="32" viewBox="0 0 32 32" fill="none" xmlns="http://www.w3.org/2000/svg">
<g id="Frame">
<path id="Vector" d="M20.3202 16C20.3202 13.6 18.4002 11.68 16.0002 11.68C13.6002 11.68 11.6802 13.6 11.6802 16C11.6802 18.4 13.6002 20.32 16.0002 20.32C18.4002 20.32 20.3202 18.4 20.3202 16ZM22.5602 16C22.5602 19.68 19.6802 22.56 16.0002 22.56C12.3202 22.56 9.4402 19.68 9.4402 16C9.4402 12.32 12.3202 9.43995 16.0002 9.43995C19.6802 9.43995 22.5602 12.32 22.5602 16ZM24.3202 9.11995C24.3202 10.08 23.6802 10.72 22.7202 10.72C21.7602 10.72 21.1202 10.08 21.1202 9.11995C21.1202 8.15995 21.7602 7.51995 22.7202 7.51995C23.6802 7.51995 24.3202 8.31995 24.3202 9.11995ZM16.0002 5.43995C14.0802 5.43995 10.0802 5.27995 8.4802 5.91995C7.3602 6.39995 6.4002 7.35995 6.0802 8.47995C5.4402 10.08 5.6002 14.08 5.6002 16C5.6002 17.92 5.4402 21.92 6.0802 23.52C6.4002 24.64 7.3602 25.6 8.4802 25.92C10.0802 26.56 14.2402 26.4 16.0002 26.4C17.7602 26.4 21.9202 26.56 23.5202 25.92C24.6402 25.44 25.4402 24.64 25.9202 23.52C26.5602 21.76 26.4002 17.76 26.4002 16C26.4002 14.24 26.5602 10.08 25.9202 8.47995C25.6002 7.35995 24.6402 6.39995 23.5202 6.07995C21.9202 5.27995 17.9202 5.43995 16.0002 5.43995ZM28.8002 16V21.28C28.8002 23.2 28.1602 25.12 26.7202 26.72C25.2802 28.16 23.3602 28.8 21.2802 28.8H10.7202C8.8002 28.8 6.8802 28.16 5.2802 26.72C4.0002 25.28 3.2002 23.36 3.2002 21.28V10.72C3.2002 8.63995 4.0002 6.71995 5.2802 5.27995C6.8802 3.99995 8.8002 3.19995 10.7202 3.19995H21.2802C23.2002 3.19995 25.1202 3.83995 26.7202 5.27995C28.0002 6.71995 28.8002 8.63995 28.8002 10.72V16Z" fill="#FFFEFB"/>
</g>
</svg>
