<svg width="32" height="32" viewBox="0 0 32 32" fill="none" xmlns="http://www.w3.org/2000/svg">
<g id="notification icon">
<path id="Vector" d="M15.9761 0C17.7185 0 19.1297 1.4368 19.1297 3.2096L19.1153 3.4704C20.5041 4.0336 21.8465 4.968 23.0369 6.2064C24.4161 7.6352 25.2225 9.5296 25.4705 11.96V20.7248L27.3761 24.0816C28.0161 25.1472 28.2209 26.04 27.7217 26.8128C27.2641 27.5184 26.4465 27.7648 25.3377 27.7456H21.0657C20.5665 30.176 18.4513 32 15.9201 32C13.3857 32 11.2721 30.176 10.7745 27.7472H6.04489L5.95529 27.7424C4.95209 27.656 4.20489 27.1712 4.03689 26.2384C3.92329 25.6032 4.07369 24.9216 4.46569 24.1088L6.42569 20.6208L6.43049 11.864C6.60169 9.928 7.32649 8.1248 8.58729 6.4704C9.65449 5.0704 11.1793 4.04 12.8337 3.4464C12.8272 3.36764 12.8239 3.28863 12.8241 3.2096C12.8241 1.4368 14.2353 0 15.9761 0ZM18.8849 27.7472H12.9553C13.3953 28.9792 14.5553 29.8592 15.9201 29.8592C17.2833 29.8592 18.4449 28.9792 18.8849 27.7472ZM16.1313 4.9984C13.9649 4.9984 11.5825 6.0304 10.2481 7.7824C9.22729 9.12 8.65769 10.5376 8.52809 11.9584V20.9024C8.52809 21.0896 8.48009 21.2736 8.38889 21.4352L6.32329 25.1088C6.24324 25.268 6.17893 25.4347 6.13129 25.6064H25.3537C25.5473 25.6096 25.6945 25.6016 25.7953 25.5984C25.7283 25.4529 25.6529 25.3113 25.5697 25.1744L23.5105 21.5472C23.4179 21.3837 23.3694 21.199 23.3697 21.0112L23.3745 12.0736C23.1809 10.2144 22.5649 8.7712 21.5361 7.7024C19.8721 5.9744 17.9169 4.9984 16.1313 4.9984ZM15.9761 2.1392C15.7427 2.14081 15.5163 2.21972 15.3325 2.3636C15.1487 2.50747 15.0177 2.7082 14.9601 2.9344C15.3537 2.8848 15.7441 2.8592 16.1313 2.8592C16.4145 2.8592 16.7009 2.8752 16.9873 2.9104C16.9254 2.68945 16.7932 2.49466 16.6108 2.35551C16.4283 2.21637 16.2055 2.14043 15.9761 2.1392Z" fill="#3B3C3D"/>
</g>
</svg>
