<svg width="32" height="32" viewBox="0 0 32 32" fill="none" xmlns="http://www.w3.org/2000/svg">
<g id="Frame">
<path id="Vector" d="M21.6 19C19.8062 19 18.9438 20 16 20C13.0562 20 12.2 19 10.4 19C5.7625 19 2 22.7625 2 27.4V29C2 30.6562 3.34375 32 5 32H27C28.6562 32 30 30.6562 30 29V27.4C30 22.7625 26.2375 19 21.6 19ZM27 29H5V27.4C5 24.425 7.425 22 10.4 22C11.3125 22 12.7937 23 16 23C19.2313 23 20.6812 22 21.6 22C24.575 22 27 24.425 27 27.4V29ZM16 18C20.9688 18 25 13.9688 25 9C25 4.03125 20.9688 0 16 0C11.0312 0 7 4.03125 7 9C7 13.9688 11.0312 18 16 18ZM16 3C19.3062 3 22 5.69375 22 9C22 12.3062 19.3062 15 16 15C12.6938 15 10 12.3062 10 9C10 5.69375 12.6938 3 16 3Z" fill="black"/>
</g>
</svg>
